<svg width="142" height="142" viewBox="0 0 142 142" fill="none" xmlns="http://www.w3.org/2000/svg">
<g clip-path="url(#clip0_131_1112)">
<path d="M104.258 0L35.3639 0.0236667C27.2581 0.0236667 19.0576 2.06492 13.1054 6.59117C8.93234 9.6237 5.64397 13.7148 3.57958 18.4422C1.37858 23.2525 0 29.7017 0 35.2101L0.071 107.393C0.0828333 116.884 2.90508 125.481 8.71525 131.723C14.5373 137.971 23.2821 141.68 34.3403 141.728L99.7313 142C107.186 142.03 118.043 141.787 125.191 137.775C131.551 134.196 137.172 128.569 139.965 120.12C141.609 115.15 142.006 107.79 142 101.5L141.876 35.6479C141.864 30.3939 140.988 23.6785 138.639 18.2884C136.125 12.5138 131.652 7.54967 124.901 3.9405C120.422 1.53833 113.138 0 104.258 0ZM104.258 5.5025C112.411 5.5025 119.274 7.24792 122.244 8.84542C128.025 11.9398 131.38 15.7442 133.421 20.4421C135.285 24.708 136.202 31.0507 136.219 35.6597L136.326 101.512C136.338 107.506 135.752 114.866 134.563 118.434C132.22 125.546 127.782 129.948 122.357 133.001C117.54 135.705 106.902 136.509 99.755 136.48L34.3758 136.219C24.5719 136.178 17.6198 133.06 12.922 128.019C8.236 122.984 5.751 115.831 5.751 107.399L5.91075 35.2042C5.91075 30.2992 7.07042 24.3944 8.71525 20.7852C10.7565 16.3063 13.1528 13.6438 16.7915 10.8807C21.2113 7.51417 28.8023 5.73917 35.9733 5.73917L104.258 5.5025ZM70.7692 25.7553C59.0779 26.2818 51.8122 35.5651 51.7531 45.2211C51.8655 53.7588 61.4268 65.817 68.8167 72.0236C69.5267 72.6093 69.7279 72.6685 70.7692 73.0886C71.1361 73.2365 71.9408 72.8105 72.704 72.2898C74.834 70.8402 78.5792 66.6867 82.4547 62.0067C84.9068 58.9628 86.957 55.6161 88.5547 52.0489C90.9747 46.7831 90.099 42.5882 89.9452 40.8783C88.8533 37.1071 86.8403 33.6667 84.0877 30.8672C80.4335 27.5742 75.6883 25.7528 70.7692 25.7553ZM95.4536 72.6271C88.9022 72.7801 82.4194 73.9991 76.2599 76.2363C75.3724 76.5794 74.7216 76.8279 74.0471 77.2421C73.7098 77.4551 73.3962 78.0408 73.4258 78.9697C73.5264 81.5317 75.1417 86.5312 77.1178 92.4006C79.3898 99.116 83.425 105.831 88.0282 108.612C90.2549 109.949 92.7306 110.818 95.3043 111.166C97.878 111.514 100.496 111.333 102.997 110.636C107.92 109.198 112.434 105.5 114.606 101.489C120.44 90.7321 115.73 80.4962 107.973 75.3547C105.328 73.6033 101.27 72.7217 96.7907 72.633L95.4536 72.6271ZM45.5643 72.8519C44.0768 72.8513 42.5907 72.9442 41.1149 73.13C37.5886 73.5915 35.6006 74.7452 33.4824 76.1475C29.3619 78.8433 26.4623 83.0471 25.4062 87.8566C24.9624 91.1226 24.8973 94.0868 25.6014 96.773C28.1633 104.991 33.4469 109.92 42.4462 111.281C46.2092 111.446 50.552 110.908 54.2203 108.618C61.7286 103.991 66.527 89.8623 68.4913 80.5613C68.8049 79.52 68.6984 78.4491 68.4144 78.0763C68.3848 77.6799 68.1541 77.4077 67.2903 76.9936C64.9354 75.8576 59.4802 74.5263 53.2382 73.4436C50.7015 73.0303 48.1343 72.8323 45.5643 72.8519Z" fill="white"/>
</g>
<defs>
<clipPath id="clip0_131_1112">
<rect width="142" height="142" fill="white"/>
</clipPath>
</defs>
</svg>
