<svg width="142" height="142" viewBox="0 0 142 142" fill="none" xmlns="http://www.w3.org/2000/svg">
<path d="M75.8813 71.0003C75.8813 59.5604 84.925 50.2949 96.072 50.2949C107.228 50.2949 116.263 59.5515 116.263 71.0003C116.263 82.4402 107.228 91.7057 96.072 91.7057C84.9338 91.7057 75.8813 82.449 75.8813 71.0003Z" fill="#1ABCFE"/>
<path d="M35.5 112.419C35.5 100.979 44.5436 91.7051 55.6906 91.7051H75.8812V112.419C75.8812 123.85 66.8376 133.125 55.6906 133.125C44.5436 133.125 35.5 123.85 35.5 112.419Z" fill="#0ACF83"/>
<path d="M75.8813 8.875V50.2946H96.072C107.228 50.2946 116.263 41.0202 116.263 29.5804C116.263 18.1494 107.228 8.875 96.072 8.875H75.8813Z" fill="#FF7262"/>
<path d="M35.5 29.5804C35.5 41.0202 44.5436 50.2946 55.6906 50.2946H75.8812V8.875H55.6906C44.5436 8.875 35.5 18.1494 35.5 29.5804Z" fill="#F24E1E"/>
<path d="M35.5 71.0003C35.5 82.4402 44.5436 91.7057 55.6906 91.7057H75.8812V50.2949H55.6906C44.5436 50.2949 35.5 59.5515 35.5 71.0003Z" fill="#A259FF"/>
</svg>
