<svg width="142" height="142" viewBox="0 0 142 142" fill="none" xmlns="http://www.w3.org/2000/svg">
<g clip-path="url(#clip0_131_1130)">
<path d="M-0.143066 51.3504C-0.143066 33.3259 -0.143066 24.3136 3.36475 17.4291C6.45033 11.3734 11.3738 6.44984 17.4296 3.36426C24.3141 -0.143555 33.3264 -0.143555 51.3508 -0.143555H90.6493C108.674 -0.143555 117.686 -0.143555 124.57 3.36426C130.626 6.44984 135.55 11.3734 138.635 17.4291C142.143 24.3136 142.143 33.3259 142.143 51.3504V90.6488C142.143 108.673 142.143 117.686 138.635 124.57C135.55 130.626 130.626 135.549 124.57 138.635C117.686 142.143 108.674 142.143 90.6493 142.143H51.3508C33.3264 142.143 24.3141 142.143 17.4296 138.635C11.3738 135.549 6.45033 130.626 3.36475 124.57C-0.143066 117.686 -0.143066 108.673 -0.143066 90.6488V51.3504Z" fill="#330000"/>
<path d="M68.8079 89.2752H46.7591L42.273 103.568C42.1485 104.099 41.6596 104.475 41.1276 104.449H29.9598C29.323 104.449 29.1003 104.09 29.2917 103.372L48.3816 46.9832C48.5727 46.3957 48.7638 45.727 48.9544 44.9764C49.2044 43.6699 49.3319 42.3426 49.3365 41.0117C49.2816 40.6184 49.6272 40.271 50.0042 40.3261H65.1811C65.6257 40.3261 65.8798 40.4893 65.9444 40.8155L87.612 103.47C87.8026 104.123 87.612 104.45 87.0393 104.449H74.6304C74.1954 104.499 73.7798 104.201 73.6761 103.764L68.8079 89.2752ZM50.1953 76.94H65.2766C62.7988 68.473 60.0024 60.1172 57.736 51.5846C55.2907 60.1319 52.6228 68.6447 50.1953 76.94Z" fill="#FF9A00"/>
<path d="M100.496 50.7032C99.5228 50.7433 98.5522 50.572 97.6472 50.2011C96.7427 49.8301 95.9245 49.2671 95.2466 48.5495C94.5708 47.8005 94.0453 46.9224 93.7013 45.9645C93.3573 45.0071 93.2013 43.9893 93.2419 42.9694C93.2074 41.9597 93.3806 40.954 93.7506 40.0177C94.121 39.0815 94.6795 38.2358 95.3899 37.536C96.0932 36.8434 96.9236 36.3008 97.8332 35.9395C98.7423 35.5782 99.7124 35.4055 100.687 35.4312C102.978 35.4312 104.776 36.1328 106.08 37.536C106.739 38.2652 107.25 39.1204 107.586 40.0528C107.922 40.985 108.075 41.9764 108.037 42.9694C108.077 43.9928 107.916 45.0148 107.563 45.9732C107.211 46.9316 106.674 47.8076 105.985 48.5495C105.265 49.2778 104.405 49.8449 103.461 50.2158C102.516 50.5863 101.507 50.7524 100.496 50.7032ZM93.9101 103.47V56.6751C93.9101 56.0877 94.1637 55.794 94.6739 55.794H106.415C106.923 55.794 107.177 56.0877 107.178 56.6751V103.47C107.178 104.124 106.923 104.45 106.415 104.449H94.7695C94.1968 104.449 93.9101 104.123 93.9101 103.47Z" fill="#FF9A00"/>
</g>
<defs>
<clipPath id="clip0_131_1130">
<rect width="142" height="142" fill="white"/>
</clipPath>
</defs>
</svg>
