<svg width="232" height="76" viewBox="0 0 232 76" fill="none" xmlns="http://www.w3.org/2000/svg">
<path d="M85.128 35.016V36.936H86.952V38.376H84.936V38.856H75.72V39.816H76.104V41.736H73.416V42.696H71.112V44.616H77.544C77.544 44.872 77.544 45.128 77.544 45.384C77.544 45.576 77.512 45.8 77.448 46.056H70.248C70.248 46.248 70.216 46.408 70.152 46.536H69.96L69.672 48.456H82.632V48.936H77.064C77.064 49 77.032 49.064 76.968 49.128C76.968 49.192 76.968 49.288 76.968 49.416H76.392C76.328 49.672 76.264 49.928 76.2 50.184C76.136 50.376 76.072 50.6 76.008 50.856H74.568L73.992 52.776H76.776L76.488 53.736H74.568L74.184 54.696H74.664C74.536 55.016 74.376 55.336 74.184 55.656C73.992 55.976 73.832 56.296 73.704 56.616H71.88C71.688 56.936 71.496 57.256 71.304 57.576C71.112 57.896 70.888 58.216 70.632 58.536H72.264C72.008 58.856 71.752 59.176 71.496 59.496C71.304 59.816 71.08 60.136 70.824 60.456H71.304C71.24 60.52 71.176 60.584 71.112 60.648C71.048 60.712 70.984 60.808 70.92 60.936H70.536C70.472 61 70.376 61.064 70.248 61.128C70.184 61.192 70.12 61.288 70.056 61.416L70.344 61.896H69.96L70.344 62.376H72.744L74.088 64.296H74.568L75.912 66.216H71.4L72.744 68.136H74.376L75.048 69.096H75.912L77.256 71.016H77.544L77.928 71.496H76.68L77.256 72.264C77.256 72.328 77.288 72.392 77.352 72.456H77.736C77.736 72.52 77.736 72.584 77.736 72.648C77.8 72.712 77.832 72.808 77.832 72.936H77.64V73.128C77.768 73.832 77.544 74.408 76.968 74.856H72.84C72.584 75.112 72.2 75.24 71.688 75.24H52.872C52.488 75.24 52.136 75.176 51.816 75.048C51.496 74.984 51.208 74.92 50.952 74.856H54.984C54.472 74.6 54.024 74.28 53.64 73.896C53.32 73.576 53.064 73.288 52.872 73.032L52.776 72.936H53.064L52.68 72.456H52.296L51.528 71.496H52.776L52.392 71.016H52.008L50.952 69.672C49.224 69.864 47.368 69.96 45.384 69.96C41.992 69.96 38.792 69.672 35.784 69.096H34.92C34.28 68.968 33.608 68.84 32.904 68.712C32.264 68.52 31.656 68.328 31.08 68.136H29.448C28.616 67.88 27.784 67.592 26.952 67.272C26.12 66.952 25.32 66.6 24.552 66.216H28.968C28.392 65.896 27.816 65.576 27.24 65.256C26.728 64.936 26.216 64.616 25.704 64.296H25.224C24.776 63.976 24.36 63.656 23.976 63.336C23.592 63.016 23.208 62.696 22.824 62.376H20.424L19.848 61.896H20.328C20.136 61.768 19.944 61.608 19.752 61.416C19.624 61.224 19.496 61.064 19.368 60.936H19.752L19.272 60.456H18.792C18.536 60.136 18.28 59.816 18.024 59.496C17.768 59.176 17.512 58.856 17.256 58.536H15.624C15.432 58.216 15.24 57.896 15.048 57.576C14.856 57.256 14.664 56.936 14.472 56.616H16.296C16.104 56.296 15.912 55.976 15.72 55.656C15.592 55.336 15.464 55.016 15.336 54.696H14.856C14.792 54.568 14.728 54.408 14.664 54.216C14.6 54.024 14.536 53.864 14.472 53.736H16.296L15.912 52.776H13.128L12.552 50.856H13.032L12.744 49.416H15.912C15.848 49.288 15.816 49.128 15.816 48.936H5.064C5 48.808 4.968 48.648 4.968 48.456H19.368L19.08 46.536H11.784C11.784 46.408 11.752 46.312 11.688 46.248C11.688 46.184 11.688 46.12 11.688 46.056H0.648C0.583999 45.8 0.551999 45.576 0.551999 45.384C0.551999 45.128 0.52 44.872 0.456 44.616H15.912V42.696H8.808V41.736H10.344V39.816H12.36V38.856H17.64C17.64 38.664 17.608 38.504 17.544 38.376H19.848V36.936H28.872V35.016H25.224V33.096H5.64V31.176H22.44V29.736H13.128V29.256H12.264V27.336H11.304V27.144C11.304 26.824 11.304 26.536 11.304 26.28C11.304 25.96 11.336 25.672 11.4 25.416H12.552C12.552 25.224 12.584 25.064 12.648 24.936H9.096C9.096 24.68 9.096 24.456 9.096 24.264C9.16 24.008 9.224 23.752 9.288 23.496H15.624L15.912 22.056H8.328C8.392 21.736 8.488 21.416 8.616 21.096C8.68 20.776 8.744 20.456 8.808 20.136H8.52C8.584 19.88 8.648 19.656 8.712 19.464C8.776 19.208 8.84 18.952 8.904 18.696H16.296L16.872 17.256H20.616L21.48 15.336H15.432L15.624 14.856H15.816L16.68 13.416H16.2C16.584 12.776 17.032 12.136 17.544 11.496H14.472C14.536 11.368 14.664 11.208 14.856 11.016H12.36L13.224 10.056H14.856L15.816 9.096H19.752L21.48 7.65599H15.72C16.04 7.4 16.36 7.176 16.68 6.984C17 6.728 17.352 6.472 17.736 6.216H22.056L22.824 5.736H24.456L27.144 4.296H29.832C30.216 4.104 30.6 3.944 30.984 3.816C31.368 3.624 31.752 3.464 32.136 3.336H33.672C36.104 2.44 38.568 1.8 41.064 1.41599H42.024C44.456 1.032 47.016 0.839996 49.704 0.839996C52.456 0.839996 55.016 1.032 57.384 1.41599H56.424C59.048 1.8 61.512 2.44 63.816 3.336H62.28C62.664 3.464 63.048 3.624 63.432 3.816C63.816 3.944 64.2 4.104 64.584 4.296H61.896L64.584 5.736H62.856C62.984 5.8 63.112 5.864 63.24 5.928C63.432 5.992 63.56 6.088 63.624 6.216H59.304L61.32 7.65599H66.984L68.712 9.096H64.68C64.872 9.224 65.032 9.384 65.16 9.576C65.352 9.768 65.512 9.928 65.64 10.056H64.008L64.872 11.016H67.272L67.752 11.496H70.824C71.336 12.136 71.784 12.776 72.168 13.416H72.648L73.512 14.856H73.32L73.608 15.336H79.752L80.616 17.256H76.872C77 17.512 77.096 17.768 77.16 18.024C77.224 18.216 77.288 18.44 77.352 18.696H70.056C70.12 18.952 70.184 19.208 70.248 19.464C70.312 19.656 70.376 19.88 70.44 20.136H66.024L66.504 22.056H75.912C75.976 22.312 76.008 22.568 76.008 22.824C76.008 23.016 76.04 23.24 76.104 23.496H74.568C74.632 23.752 74.664 24.008 74.664 24.264C74.664 24.456 74.696 24.68 74.76 24.936H80.904C80.968 25.064 81 25.224 81 25.416H74.088C74.152 25.672 74.184 25.96 74.184 26.28C74.184 26.536 74.216 26.824 74.28 27.144V27.336H72.84C72.84 27.656 72.84 27.976 72.84 28.296C72.84 28.616 72.872 28.936 72.936 29.256H78.312V29.736H82.824V31.176H75.72V33.096H90.408C90.408 33.416 90.408 33.736 90.408 34.056C90.472 34.376 90.504 34.696 90.504 35.016H85.128ZM36.648 20.136C35.624 20.52 34.824 21.16 34.248 22.056H40.584C39.88 21.096 39.08 20.456 38.184 20.136H42.6C41.768 19.752 40.744 19.56 39.528 19.56C38.376 19.56 37.32 19.752 36.36 20.136H36.648ZM61.896 38.376C61.96 38.12 61.992 37.896 61.992 37.704C61.992 37.448 61.992 37.192 61.992 36.936H60.168V35.016H65.544C65.544 34.696 65.512 34.376 65.448 34.056C65.448 33.736 65.448 33.416 65.448 33.096H50.76V31.176H57.864V29.736H53.352V29.256H47.976C47.912 28.936 47.88 28.616 47.88 28.296C47.88 27.976 47.88 27.656 47.88 27.336H49.32C49.256 27.016 49.224 26.696 49.224 26.376C49.224 25.992 49.16 25.672 49.032 25.416H55.944C55.944 25.288 55.912 25.192 55.848 25.128C55.848 25.064 55.848 25 55.848 24.936H49.704C49.64 24.68 49.576 24.456 49.512 24.264C49.448 24.008 49.352 23.752 49.224 23.496H50.76C50.568 22.984 50.312 22.504 49.992 22.056H41.736C41.416 22.504 41.16 22.984 40.968 23.496H34.632C34.568 23.752 34.472 24.008 34.344 24.264C34.28 24.456 34.216 24.68 34.152 24.936H37.704C37.704 25 37.672 25.064 37.608 25.128C37.608 25.192 37.608 25.288 37.608 25.416H36.456C36.392 25.672 36.328 25.992 36.264 26.376C36.264 26.696 36.264 27.016 36.264 27.336H37.224V29.256H38.088V29.736H47.4V31.176H30.6V33.096H50.184V35.016H53.832V36.936H44.808V38.376H42.6V38.856H37.32V39.816H35.304V41.736H33.768V42.696H40.872V43.464C40.872 43.656 40.872 43.848 40.872 44.04C40.872 44.232 40.904 44.424 40.968 44.616H25.512C25.512 44.872 25.512 45.128 25.512 45.384C25.576 45.576 25.64 45.8 25.704 46.056H36.84C36.904 46.184 36.936 46.344 36.936 46.536H44.328C44.392 46.6 44.424 46.696 44.424 46.824C44.424 46.952 44.456 47.08 44.52 47.208C44.584 47.08 44.616 46.952 44.616 46.824C44.616 46.696 44.648 46.6 44.712 46.536H45C45 46.408 45 46.312 45 46.248C45.064 46.184 45.096 46.12 45.096 46.056H52.296L52.584 44.616H46.056C46.12 44.424 46.152 44.232 46.152 44.04C46.152 43.848 46.152 43.656 46.152 43.464V42.696H48.456V41.736H51.144V39.816H50.76V38.856H59.976V38.376H61.896ZM56.52 48.936C56.712 48.744 56.84 48.584 56.904 48.456H30.696C30.888 48.648 31.016 48.808 31.08 48.936H41.832C41.896 49 41.96 49.064 42.024 49.128C42.088 49.192 42.152 49.288 42.216 49.416H39.048C39.752 50.12 40.552 50.6 41.448 50.856H40.872C41.64 51.112 42.536 51.24 43.56 51.24C44.584 51.24 45.48 51.112 46.248 50.856H47.688C48.584 50.536 49.352 50.056 49.992 49.416H50.664C50.728 49.288 50.792 49.192 50.856 49.128C50.92 49.064 50.984 49 51.048 48.936H56.52ZM146.932 30.696H142.228C142.164 30.952 142.1 31.208 142.036 31.464C141.972 31.656 141.876 31.88 141.748 32.136H144.436L144.148 33.096H141.844C141.652 33.672 141.396 34.312 141.076 35.016H139.636C139.38 35.656 139.028 36.296 138.58 36.936H138.772C138.516 37.256 138.292 37.576 138.1 37.896C137.908 38.216 137.684 38.536 137.428 38.856H147.796L146.548 40.296H138.004C137.748 40.616 137.428 40.936 137.044 41.256C136.66 41.576 136.308 41.896 135.988 42.216H137.236C136.98 42.472 136.66 42.728 136.276 42.984C135.956 43.176 135.636 43.4 135.316 43.656H138.484L138.1 43.944L138.964 45.576H136.66L137.716 47.496H138.004L138.292 47.976H138.196L139.156 49.896H140.116L140.692 50.856H133.3L134.068 52.296H140.788L141.364 53.256H139.252L140.02 54.696H149.524L150.58 56.616H144.244L145.012 58.056H142.036L143.572 60.936H144.244L144.82 61.896H144.532L144.82 62.376H140.308L141.364 64.296L141.556 64.776H138.58L139.06 65.832C139.252 66.088 139.348 66.376 139.348 66.696H141.364V66.888C141.364 67.592 141.076 68.168 140.5 68.616H143.092C142.772 68.872 142.356 69 141.844 69H122.164C121.78 69 121.428 68.968 121.108 68.904C120.852 68.776 120.564 68.68 120.244 68.616H117.652C117.14 68.36 116.692 68.04 116.308 67.656C115.988 67.272 115.732 66.952 115.54 66.696H113.62L113.428 66.408L112.756 64.776H115.828L115.54 64.296H106.42V64.776H101.524V66.696H109.3C109.172 67.592 108.756 68.232 108.052 68.616H107.38C106.932 68.872 106.452 69 105.94 69H87.124C86.548 69 86.1 68.872 85.78 68.616H86.548C85.844 68.232 85.428 67.592 85.3 66.696H77.62C77.62 66.632 77.62 66.6 77.62 66.6C77.556 66.536 77.524 66.472 77.524 66.408V64.776H82.42V64.296H92.02V62.376H81.748V61.896H87.796V60.936H85.78V59.496H89.14V58.056H83.668V56.616H91.06V54.696H86.836V53.256H86.74V52.776H86.164V52.296H83.572V50.856H86.836V49.896H85.972V47.976H86.068V47.496H85.78V45.576H88.084V43.656H84.82V42.216H83.572V40.296H92.02V38.856H81.652V36.936H81.46V35.016H82.9V33.096H85.108V32.136H82.42V30.696H87.124V29.736H94.036V28.776H84.532V28.296H85.012V27.816H85.876V27.336H85.972V26.376H85.78V24.936H86.164V23.016H85.684V22.056H86.164V20.616H85.78V20.136H86.068V19.176H85.972V18.696H85.588V18.216H86.452V16.776H87.22V15.336H82.708V13.416H83.764V11.496H83.188V10.056H85.78V8.616H86.74V7.17599H85.012V6.216H85.684V5.736H85.876V4.296H86.068C86.068 3.592 86.356 2.952 86.932 2.376H92.116C92.5 1.992 93.044 1.8 93.748 1.8H122.164C124.916 1.8 127.476 1.992 129.844 2.376H124.756C127.316 2.76 129.748 3.4 132.052 4.296H131.86C132.948 4.68 134.004 5.16 135.028 5.736H134.836L135.7 6.216H134.932C135.252 6.344 135.508 6.504 135.7 6.696C135.956 6.888 136.212 7.048 136.468 7.17599H138.196C138.516 7.432 138.836 7.688 139.156 7.944C139.476 8.136 139.764 8.36 140.02 8.616H139.06C139.38 8.872 139.636 9.128 139.828 9.384C140.084 9.576 140.34 9.8 140.596 10.056H138.004C138.26 10.312 138.484 10.568 138.676 10.824C138.868 11.016 139.06 11.24 139.252 11.496H139.732C140.244 12.136 140.692 12.776 141.076 13.416H140.116C140.308 13.672 140.468 13.992 140.596 14.376C140.788 14.696 140.98 15.016 141.172 15.336H145.684L146.26 16.776H145.492C145.556 17.032 145.62 17.288 145.684 17.544C145.812 17.736 145.908 17.96 145.972 18.216H145.012L145.204 18.696H145.588C145.652 18.824 145.684 18.984 145.684 19.176L145.972 20.136H146.26C146.26 20.328 146.292 20.488 146.356 20.616H146.452C146.516 20.872 146.548 21.128 146.548 21.384C146.612 21.576 146.644 21.8 146.644 22.056H145.396C145.396 22.184 145.396 22.344 145.396 22.536C145.396 22.728 145.428 22.888 145.492 23.016H146.068C146.068 23.336 146.068 23.656 146.068 23.976C146.132 24.296 146.164 24.616 146.164 24.936V25.896H146.74V26.376H146.164V27.336H145.204C145.204 27.4 145.172 27.464 145.108 27.528C145.108 27.592 145.108 27.688 145.108 27.816H146.068C146.068 27.88 146.036 27.944 145.972 28.008C145.972 28.072 145.972 28.168 145.972 28.296H150.484C150.42 28.424 150.388 28.584 150.388 28.776H151.636L151.54 29.736H147.124C146.996 30.12 146.932 30.44 146.932 30.696ZM108.532 28.776H118.036V29.736H111.124V29.832H118.132C118.58 29.832 118.932 29.8 119.188 29.736H123.604C124.308 29.544 124.948 29.224 125.524 28.776H124.18L124.66 28.296H120.148C120.34 28.104 120.468 27.944 120.532 27.816H119.572L119.86 27.336H120.82L121.108 26.376H121.588C121.652 26.248 121.684 26.088 121.684 25.896H121.108L121.204 24.936C121.204 24.296 121.108 23.656 120.916 23.016H120.34C120.276 22.888 120.212 22.728 120.148 22.536C120.148 22.344 120.084 22.184 119.956 22.056H121.3C121.044 21.544 120.692 21.064 120.244 20.616H120.052C119.86 20.424 119.636 20.264 119.38 20.136H119.092C118.452 19.816 117.78 19.656 117.076 19.656H110.068V20.136H109.78V20.616H110.164V22.056H109.684V23.016H110.164V24.936H109.78V26.376H109.972V27.336H109.876V27.816H109.012V28.296H108.532V28.776ZM116.116 50.856L115.732 49.896H114.676L113.908 48.072H109.972V49.896H110.836V50.856H116.116ZM107.572 50.856V52.296H109.396L108.82 50.856H107.572ZM116.308 52.776L116.116 52.296H110.164V52.776H110.74V53.256H110.836V54.696H115.06V56.616H107.668V58.056H113.14V59.496H109.78V60.936H111.796V61.896H105.748V62.376H119.284L118.996 61.896H119.284L118.804 60.936H118.036L117.46 59.496L116.788 58.056H119.86L119.188 56.616H125.428L124.564 54.696H115.06L114.484 53.256H116.596L116.308 52.776ZM223.087 46.536V47.016H230.575V47.976H230.191V49.416H210.319V49.896H213.775V51.336H224.335V52.296H218.863V54.216H218.575V54.696H212.239V56.136H221.647V56.616H222.031V58.056H222.991V59.976H204.463V61.416H224.047V62.376H217.519V63.816H216.655V64.776H218.863V65.736H217.423V66.696H220.783L220.495 67.656H225.007C224.879 67.848 224.719 68.04 224.527 68.232C224.399 68.36 224.239 68.488 224.047 68.616H226.255C225.935 68.872 225.487 69 224.911 69H206.095C205.519 69 205.071 68.872 204.751 68.616H202.543C202.095 68.424 201.775 68.104 201.583 67.656H197.071L196.783 66.696H193.423V65.736H194.863V64.776H192.655V63.816H193.519V62.376H200.047V61.416H182.671V62.376H174.703V63.816H180.175V64.776H178.831V65.736H183.823V66.696H178.447L178.159 67.656H180.271C180.015 68.104 179.727 68.424 179.407 68.616H177.103C176.783 68.872 176.335 69 175.759 69H156.943C156.303 69 155.823 68.872 155.503 68.616H157.807C157.487 68.424 157.199 68.104 156.943 67.656H154.735C154.543 67.336 154.447 67.016 154.447 66.696H159.823V65.736H154.831V64.776H156.175V63.816H150.703V62.376H158.671V61.416H163.279V59.976H148.495V58.056H153.967V56.616H157.807V56.136H155.119V54.696H150.607V54.216H151.567V52.296H154.639V51.336H156.079V49.896H149.167V49.416H166.927V47.976H145.231V47.016H165.679V46.536H155.695V45.096H161.455V44.616H162.607V44.136H162.127V42.216H152.623V40.776H155.791V40.296H154.927V38.856H155.311V38.376H155.407V37.416H155.503V36.936H154.255V36.456H150.511V35.016H151.759V33.576H149.839V32.136H154.639V30.216H153.583V29.256H146.575V28.776H157.807V27.816H160.495V27.336H134.575V26.856H149.839V26.376H155.311V24.936H145.519V23.016H142.831V21.576H154.351V19.656H155.311V18.216H161.455V17.736H156.175V15.816H160.495V14.856H155.311V14.376H153.487V13.416H150.703V12.456H147.343V10.536H153.391V9.096H157.039V7.65599H155.311V6.696H152.911V6.216H154.255V5.256H153.967V4.392C153.967 3.944 154.063 3.592 154.255 3.336H160.399C160.463 3.144 160.559 2.984 160.687 2.856C160.815 2.664 160.943 2.504 161.071 2.376H175.855C176.239 1.992 176.783 1.8 177.487 1.8H214.351C214.991 1.8 215.535 1.992 215.983 2.376H230.767C230.895 2.504 231.023 2.664 231.151 2.856C231.343 2.984 231.471 3.144 231.535 3.336H219.151C219.279 3.72 219.343 4.072 219.343 4.392V5.256H219.823V6.216H221.167V6.696H218.575V7.65599H217.423V9.096H221.167V10.536H212.143V12.456H222.511V13.416H215.023V14.376H218.095V14.856H216.559V15.816H223.759V17.736H213.199V18.216H221.359V19.656H219.919V21.576H212.239V23.016H209.071V24.936H218.863V26.376H213.391V26.856H198.127V27.336H224.047V27.816H221.359V28.776H210.127V29.256H217.135V30.216H218.191V32.136H213.391V33.576H215.311V35.016H214.063V36.456H217.807V36.936H219.055V37.416H218.959V38.376H218.863V38.856H218.479V40.296H219.343V40.776H216.175V42.216H225.679V44.136H226.159V44.616H225.007V45.096H219.247V46.536H223.087ZM166.831 21.576V23.016H169.519V24.552H185.071V23.016H188.239V21.576H195.919V19.656H197.359V18.216H189.199V17.736H199.759V15.816H192.559V14.856H194.095V14.376H191.023V13.416H198.511V12.456H188.143V10.536H197.167V9.096H193.423V7.65599H194.575V6.696H197.167V6.216H195.823V5.256H195.343V4.392C195.343 4.072 195.407 3.72 195.535 3.336H207.919C208.047 3.144 208.175 2.984 208.303 2.856C208.431 2.664 208.559 2.504 208.687 2.376H183.151C183.471 2.632 183.727 2.952 183.919 3.336H177.775C177.903 3.528 177.967 3.88 177.967 4.392V5.256H178.255V6.216H176.911V6.696H179.311V7.65599H181.039V9.096H177.391V10.536H171.343V12.456H174.703V13.416H177.487V14.376H179.311V14.856H184.495V15.816H180.175V17.736H185.455V18.216H179.311V19.656H178.351V21.576H166.831ZM206.575 47.976V47.016H199.087V46.536H195.247V45.672H179.695V46.536H189.679V47.016H169.231V47.976H190.927V49.416H206.191V47.976H206.575ZM200.335 51.336H189.775V49.896H186.319V49.416H173.167V49.896H180.079V51.336H178.639V52.296H175.567V54.216H174.607V54.696H179.119V56.136H181.807V56.616H177.967V58.056H172.495V59.976H198.991V58.056H198.031V56.616H197.647V56.136H188.239V54.696H194.575V54.216H194.863V52.296H200.335V51.336Z" fill="#FF9143"/>
</svg>
