<svg width="142" height="138" viewBox="0 0 142 138" fill="none" xmlns="http://www.w3.org/2000/svg">
<g clip-path="url(#clip0_131_1142)">
<path d="M25.1462 -0.224609H116.854C130.759 -0.224609 142 11.0167 142 24.9216V113.079C142 126.984 130.759 138.225 116.854 138.225H25.1462C11.2413 138.225 0 126.984 0 113.079V24.9216C0 11.0167 11.2413 -0.224609 25.1462 -0.224609Z" fill="#001E36"/>
<path d="M50.8837 34.9785C49.1087 34.9785 47.3337 34.9785 45.4999 35.0384C43.665 35.0972 41.9488 35.0972 40.3512 35.1571C38.7537 35.2159 37.275 35.2159 35.855 35.2747C34.4937 35.3335 33.5475 35.3335 32.5412 35.3335C32.1275 35.3335 31.95 35.5698 31.95 35.9847V96.8672C31.95 97.3997 32.1862 97.6371 32.66 97.6371H44.1387C44.5525 97.5772 44.8487 97.2222 44.7887 96.8084V77.8159C45.9125 77.8159 46.7412 77.8159 47.3337 77.8747C47.925 77.9335 48.8712 77.9335 50.2912 77.9335C55.1437 77.9335 59.5812 77.401 63.6037 75.9222C67.45 74.5022 70.7637 72.0172 73.13 68.7035C75.4966 65.3902 76.68 61.1893 76.68 56.101C76.68 53.4385 76.2074 50.8947 75.3199 48.4097C74.3795 45.878 72.9063 43.5778 71 41.6647C68.7499 39.4788 66.0415 37.8213 63.0712 36.8123C59.7575 35.5698 55.735 34.9785 50.8837 34.9785ZM52.2038 46.6325C54.3116 46.6724 56.364 47.0407 58.2787 47.8173C59.995 48.4685 61.4149 49.6522 62.4212 51.1898C63.3648 52.7811 63.8369 54.6078 63.7824 56.4571C63.7824 59.0597 63.19 61.0721 61.9475 62.5509C60.645 64.0297 58.9887 65.1546 57.0962 65.6871C54.9062 66.3971 52.5987 66.751 50.2912 66.751H47.155C46.445 66.751 45.6774 66.6922 44.8487 66.6334V46.7534C45.2625 46.6935 46.0912 46.6347 47.2749 46.6946C48.3987 46.6347 49.7588 46.6347 51.2975 46.6347C51.6007 46.6273 51.9028 46.6266 52.2038 46.6325ZM101.826 49.6533C97.625 49.6533 94.1338 50.3034 91.3537 51.7234C88.8099 52.9071 86.62 54.7997 85.1412 57.166C83.8399 59.3559 83.1287 61.781 83.1287 64.3259C83.0782 66.419 83.5458 68.4922 84.49 70.3609C85.5965 72.3508 87.1329 74.0687 88.9874 75.3897C91.5901 77.1699 94.4145 78.602 97.3887 79.6497C100.287 80.7735 102.24 81.661 103.187 82.4298C104.134 83.1997 104.607 83.9685 104.607 84.7972C104.607 85.8622 103.956 86.8684 103.01 87.2822C101.945 87.8147 100.347 88.1109 98.0987 88.1109C95.7324 88.1109 93.365 87.8147 91.1163 87.2234C88.5343 86.6468 86.0587 85.6686 83.7799 84.3246C83.6024 84.2059 83.425 84.1471 83.2475 84.2658C83.07 84.3834 83.0112 84.6197 83.0112 84.7972V95.0922C82.9524 95.5659 83.2475 95.9797 83.6624 96.216C85.581 97.1124 87.6105 97.7492 89.6974 98.1097C92.3599 98.6422 95.0213 98.8785 97.7425 98.8785C102.003 98.8785 105.554 98.2284 108.452 96.9859C111.115 95.9209 113.422 94.0871 115.079 91.7197C116.63 89.3924 117.435 86.6474 117.386 83.8509C117.445 81.7384 116.977 79.6444 116.026 77.7571C114.901 75.7447 113.304 74.0884 111.351 72.8459C108.495 71.0521 105.437 69.6021 102.24 68.526C100.812 67.9352 99.4108 67.2838 98.0387 66.5735C97.27 66.1597 96.56 65.6272 96.0275 64.976C95.6725 64.5023 95.4362 63.9709 95.4362 63.4384C95.4362 62.9059 95.6137 62.3146 95.9088 61.8409C96.3237 61.2496 96.9738 60.8347 97.7425 60.6572C98.8675 60.3621 100.11 60.1835 101.293 60.2423C103.541 60.2423 105.73 60.5385 107.92 61.0122C109.932 61.426 111.825 62.0772 113.6 63.0246C113.836 63.1422 114.132 63.1422 114.665 63.0246C114.757 62.9561 114.832 62.8668 114.884 62.7638C114.935 62.6609 114.962 62.5473 114.961 62.4322V52.7884C114.961 52.551 114.901 52.3147 114.842 52.0784C114.724 51.8421 114.487 51.6047 114.251 51.5459C112.619 50.8789 110.909 50.4216 109.162 50.1847C106.733 49.831 104.281 49.6541 101.826 49.6533Z" fill="#31A8FF"/>
</g>
<defs>
<clipPath id="clip0_131_1142">
<rect width="142" height="138" fill="white"/>
</clipPath>
</defs>
</svg>
