<svg width="142" height="142" viewBox="0 0 142 142" fill="none" xmlns="http://www.w3.org/2000/svg">
<g clip-path="url(#clip0_131_1123)">
<path d="M5.24739 94.4828C4.63058 94.4829 4.0198 94.3615 3.44993 94.1255C2.88005 93.8895 2.36225 93.5435 1.92607 93.1074C1.4899 92.6713 1.14391 92.1535 0.907849 91.5837C0.671791 91.0138 0.550293 90.4031 0.550293 89.7863V5.24634C0.550293 4.62954 0.671791 4.01877 0.907849 3.44893C1.14391 2.87908 1.4899 2.36131 1.92607 1.92519C2.36225 1.48907 2.88005 1.14314 3.44993 0.907148C4.0198 0.671158 4.63058 0.549732 5.24739 0.549805H89.7873C90.4041 0.549805 91.0148 0.671284 91.5846 0.907308C92.1544 1.14333 92.6721 1.48928 93.1083 1.92539C93.5444 2.3615 93.8903 2.87925 94.1263 3.44906C94.3624 4.01887 94.4838 4.62959 94.4838 5.24634V47.5163H136.754C137.999 47.5163 139.194 48.0111 140.075 48.8919C140.956 49.7727 141.45 50.9672 141.45 52.2128V136.753C141.45 137.998 140.956 139.193 140.075 140.074C139.194 140.954 137.999 141.449 136.754 141.449H52.2128C50.9672 141.449 49.7726 140.954 48.8918 140.074C48.0111 139.193 47.5162 137.998 47.5162 136.753V94.4828H5.24739Z" fill="white"/>
<path d="M89.7867 0H5.24679C3.8552 0.000147102 2.52066 0.553056 1.53672 1.53711C0.552767 2.52116 -7.77495e-09 3.85576 0 5.24734L0 89.7867L0.00221875 89.9365C0.0411957 91.3016 0.61082 92.5977 1.5901 93.5495C2.56938 94.5013 3.88115 95.0339 5.24679 95.034L46.9665 95.0335V136.753C46.9666 138.145 47.5196 139.479 48.5036 140.463C49.4877 141.447 50.8223 142 52.2138 142H136.753C138.144 142 139.479 141.447 140.463 140.463C141.447 139.479 141.999 138.144 141.999 136.753V52.2138L141.997 52.0641C141.958 50.699 141.389 49.4029 140.409 48.4511C139.43 47.4992 138.118 46.9667 136.753 46.9665H95.0329V5.24734C95.0329 3.85576 94.4802 2.52116 93.4962 1.53711C92.5123 0.553056 91.1777 0.000147102 89.7862 0M89.7862 1.1005C90.8858 1.1005 91.9404 1.53734 92.718 2.31492C93.4956 3.0925 93.9324 4.14712 93.9324 5.24679V47.5168C93.9324 47.8207 94.1787 48.067 94.4827 48.067H136.753C137.852 48.067 138.907 48.5038 139.685 49.2814C140.462 50.059 140.899 51.1136 140.899 52.2133V136.753C140.899 137.298 140.792 137.837 140.583 138.34C140.375 138.843 140.07 139.3 139.685 139.685C139.3 140.07 138.843 140.376 138.339 140.584C137.836 140.792 137.297 140.9 136.753 140.9H52.2127C51.1131 140.9 50.0584 140.463 49.2809 139.685C48.5033 138.908 48.0664 137.853 48.0664 136.753V94.4832C48.0666 94.4109 48.0525 94.3393 48.0249 94.2725C47.9973 94.2057 47.9567 94.145 47.9056 94.0938C47.8545 94.0427 47.7938 94.0022 47.7269 93.9746C47.6601 93.947 47.5885 93.9329 47.5162 93.933H5.24734C4.14768 93.933 3.09305 93.4962 2.31547 92.7186C1.53789 91.941 1.10105 90.8864 1.10105 89.7867V5.24679C1.10105 4.14712 1.53789 3.0925 2.31547 2.31492C3.09305 1.53734 4.14768 1.1005 5.24734 1.1005H89.7862Z" fill="#16161A"/>
<path d="M31.8611 70.9995C30.8231 70.9995 29.8276 70.5872 29.0936 69.8532C28.3596 69.1192 27.9473 68.1237 27.9473 67.0856V24.033C27.9473 22.995 28.3596 21.9995 29.0936 21.2655C29.8276 20.5315 30.8231 20.1191 31.8611 20.1191H46.5504C49.3956 20.1191 52.0531 20.4054 54.5229 20.9778C57.0464 21.4981 59.2207 22.4085 61.046 23.7091C62.9253 24.9575 64.4017 26.6482 65.4752 28.7811C66.5491 30.8623 67.086 33.4376 67.086 36.5068C67.086 39.4726 66.5223 42.0478 65.3948 44.2325C64.3209 46.418 62.8445 48.213 60.9656 49.6174C59.0867 51.0219 56.9123 52.0625 54.4425 52.7392C51.9726 53.4156 49.3419 53.7537 46.5504 53.7537H43.6993C42.6614 53.7537 41.6659 54.166 40.9319 54.8999C40.198 55.6338 39.7856 56.6291 39.7854 57.667V67.0856C39.7854 67.5996 39.6842 68.1086 39.4875 68.5834C39.2908 69.0583 39.0025 69.4897 38.6391 69.8532C38.2756 70.2166 37.8442 70.5049 37.3693 70.7016C36.8945 70.8983 36.3855 70.9995 35.8715 70.9995H31.8611ZM39.7854 40.7091C39.7854 41.7472 40.1978 42.7427 40.9318 43.4767C41.6657 44.2107 42.6613 44.623 43.6993 44.623H45.8254C52.2679 44.623 55.4892 41.9176 55.4892 36.5068C55.4892 33.8536 54.6571 31.9806 52.9931 30.8878C51.3823 29.7958 48.993 29.2499 45.8254 29.2499H43.6993C42.6614 29.2499 41.6659 29.6621 40.9319 30.396C40.198 31.1299 39.7856 32.1252 39.7854 33.1632V40.7091ZM78.8276 121.88C78.3137 121.88 77.8047 121.779 77.3299 121.582C76.855 121.385 76.4235 121.097 76.0601 120.734C75.6967 120.37 75.4084 119.939 75.2117 119.464C75.015 118.989 74.9138 118.48 74.9138 117.966V74.9134C74.9138 74.3994 75.015 73.8905 75.2117 73.4156C75.4084 72.9408 75.6967 72.5093 76.0601 72.1459C76.4235 71.7824 76.855 71.4941 77.3299 71.2974C77.8047 71.1007 78.3137 70.9995 78.8276 70.9995H92.4785C95.205 70.9995 97.7177 71.2075 100.017 71.6235C102.37 71.9882 104.402 72.6645 106.113 73.6526C107.823 74.6414 109.16 75.942 110.123 77.5543C111.139 79.1673 111.647 81.1965 111.646 83.642C111.646 84.7861 111.459 85.9306 111.085 87.0755C110.764 88.22 110.229 89.2863 109.481 90.2743C108.732 91.2632 107.797 92.1477 106.674 92.928C105.587 93.6838 104.299 94.2441 102.811 94.6087C102.769 94.6191 102.732 94.6432 102.705 94.6773C102.678 94.7114 102.664 94.7534 102.664 94.7967C102.664 94.8893 102.731 94.9687 102.822 94.9859C106.486 95.67 109.268 96.9609 111.165 98.8587C113.09 100.783 114.053 103.463 114.053 106.897C114.053 109.498 113.545 111.735 112.529 113.608C111.513 115.48 110.096 117.041 108.278 118.29C106.46 119.487 104.321 120.397 101.862 121.021C99.4561 121.594 96.8361 121.88 94.0017 121.88H78.8276ZM86.7037 87.5314C86.7037 88.0454 86.8049 88.5543 87.0016 89.0292C87.1983 89.504 87.4866 89.9355 87.85 90.299C88.2134 90.6624 88.6449 90.9507 89.1197 91.1474C89.5946 91.3441 90.1035 91.4453 90.6175 91.4453H91.9166C94.8043 91.4453 96.8896 90.8989 98.1724 89.8062C99.4552 88.7135 100.097 87.1788 100.097 85.2023C100.097 83.3289 99.4287 82.0023 98.0919 81.2224C96.8088 80.3904 94.7771 79.9742 91.997 79.9738H90.6175C90.1035 79.9738 89.5946 80.075 89.1197 80.2717C88.6449 80.4684 88.2134 80.7567 87.85 81.1201C87.4866 81.4836 87.1983 81.9151 87.0016 82.3899C86.8049 82.8648 86.7037 83.3737 86.7037 83.8877V87.5314ZM86.7037 108.992C86.7038 110.03 87.1162 111.026 87.8502 111.759C88.5842 112.493 89.5796 112.906 90.6175 112.906H93.0393C99.3487 112.906 102.503 110.617 102.503 106.039C102.503 103.801 101.728 102.188 100.178 101.2C98.6799 100.212 96.3005 99.7173 93.0393 99.7173H90.6175C90.1035 99.7173 89.5946 99.8186 89.1197 100.015C88.6449 100.212 88.2134 100.5 87.85 100.864C87.4866 101.227 87.1983 101.659 87.0016 102.133C86.8049 102.608 86.7037 103.117 86.7037 103.631V108.992Z" fill="#16161A"/>
</g>
<defs>
<clipPath id="clip0_131_1123">
<rect width="142" height="142" fill="white"/>
</clipPath>
</defs>
</svg>
