<svg width="142" height="86" viewBox="0 0 142 86" fill="none" xmlns="http://www.w3.org/2000/svg">
<path d="M71 0C52.0663 0 40.237 9.46297 35.5 28.3967C42.5978 18.9326 50.8837 15.3837 60.3478 17.75C65.7515 19.0968 69.6133 23.0151 73.8899 27.3572C80.8501 34.4206 88.9064 42.5978 106.5 42.5978C125.433 42.5978 137.263 33.1337 142 14.1956C134.9 23.6644 126.617 27.2152 117.151 24.8478C111.748 23.4999 107.891 19.5827 103.609 15.2406C96.6532 8.1772 88.5991 0 71 0ZM35.5 42.5978C16.5674 42.5978 4.73703 52.0619 0 71C7.09926 61.5311 15.3819 57.9804 24.8478 60.3478C30.2515 61.6957 34.1133 65.6129 38.3899 69.955C45.3501 77.0184 53.4064 85.1956 71 85.1956C89.9326 85.1956 101.763 75.7326 106.5 56.7989C99.4 66.2633 91.117 69.8122 81.6511 67.4456C76.2485 66.0988 72.3912 62.1805 68.109 57.8384C61.1532 50.775 53.0991 42.5978 35.5 42.5978Z" fill="#38BDF8"/>
</svg>
