<svg width="142" height="142" viewBox="0 0 142 142" fill="none" xmlns="http://www.w3.org/2000/svg">
<g clip-path="url(#clip0_131_1110)">
<path d="M70.9999 -0.201172C31.7684 -0.201172 -0.200684 31.7679 -0.200684 70.9994C-0.200684 110.231 31.7684 142.2 70.9999 142.2C110.231 142.2 142.2 110.231 142.2 70.9994C142.2 31.7679 110.231 -0.201172 70.9999 -0.201172ZM6.99057 70.9994C6.99057 61.7433 8.98419 52.9145 12.5442 44.94L43.0893 128.601C21.7291 118.205 6.99057 96.3468 6.99057 70.9994ZM70.9999 135.009C64.7342 135.009 58.6822 134.083 52.9149 132.374L72.1391 76.553L91.7905 130.452C91.9329 130.737 92.0753 131.093 92.2177 131.306C85.596 133.727 78.4759 135.009 70.9999 135.009ZM79.8288 40.9528C83.6736 40.7392 87.1624 40.312 87.1624 40.312C90.58 39.8848 90.224 34.8295 86.7352 35.0431C86.7352 35.0431 76.3399 35.8263 69.6471 35.8263C63.3814 35.8263 52.7725 35.0431 52.7725 35.0431C49.3549 34.9007 48.9277 40.1696 52.4165 40.3832C52.4165 40.3832 55.6918 40.8104 59.1094 41.024L69.0775 68.365L55.051 110.373L31.7684 40.9528C35.6132 40.8104 39.102 40.3832 39.102 40.3832C42.5197 39.9559 42.1637 34.9007 38.6748 35.1143C38.6748 35.1143 28.2795 35.8975 21.5867 35.8975C20.3763 35.8975 18.9523 35.8975 17.4571 35.8263C28.9916 18.4534 48.6429 6.99009 70.9999 6.99009C87.6608 6.99009 102.827 13.3269 114.219 23.7934C113.934 23.7934 113.649 23.7222 113.364 23.7222C107.099 23.7222 102.613 29.2047 102.613 35.1143C102.613 40.3832 105.675 44.8688 108.879 50.1376C111.299 54.4097 114.147 59.8921 114.147 67.7954C114.147 73.2778 112.011 79.6147 109.306 88.5147L102.898 109.875L79.8288 40.9528ZM127.177 40.312C135.171 54.949 137.136 72.1279 132.655 88.1921C128.173 104.256 117.599 117.937 103.183 126.322L122.763 69.789C126.394 60.6753 127.604 53.3417 127.604 46.8624C127.604 44.5128 127.462 42.3056 127.177 40.312Z" fill="white"/>
</g>
<defs>
<clipPath id="clip0_131_1110">
<rect width="142" height="142" fill="white"/>
</clipPath>
</defs>
</svg>
